# xmcd
#
# Track frame offsets:
#  150
#  16637
#  41561
#  63809
#  83544
#  103799
#  125526
#  157231
#  170296
#  190201
#  206626
#  222548
#  238523
#  257568
#  270856
#  284813
#  303579
#  317140
#
# Disc length: 4529 seconds
#
# Revision: 0
# Processed by: cddbd v1.4PL0 Copyright (c) Steve Scherf et al.
# Submitted via: AltoMP3_Maker 3.0
#
DISCID=fd11af12
DTITLE=Eric Clapton - The Very Best Of DISK 2
DYEAR=1900
DGENRE=
TTITLE0=Key To The Highway
TTITLE1=Little Wing
TTITLE2=Noboby Knows You When You're Down And Out
TTITLE3=Riding With The King
TTITLE4=Got You On My Mind
TTITLE5=I Ain't Gonna Stand For It
TTITLE6=Layla (original)
TTITLE7=Give Me Strength
TTITLE8=I Shot The Sheriff
TTITLE9=Wonderfull Tonight
TTITLE10=All Your Love
TTITLE11=Cocaine
TTITLE12=Crossroads
TTITLE13=Blues Before Sunrise
TTITLE14=Bottle Of Red Wine
TTITLE15=Sunshine Of You Love
TTITLE16=World Of Pain
TTITLE17=Let It Grow
EXTD=
EXTT0=
EXTT1=
EXTT2=
EXTT3=
EXTT4=
EXTT5=
EXTT6=
EXTT7=
EXTT8=
EXTT9=
EXTT10=
EXTT11=
EXTT12=
EXTT13=
EXTT14=
EXTT15=
EXTT16=
EXTT17=
PLAYORDER=
